<svg width="41" height="42" viewBox="0 0 41 42" fill="none" xmlns="http://www.w3.org/2000/svg">
<path d="M37.145 10.249C35.9202 10.7774 34.5873 11.1576 33.2144 11.3057C34.6398 10.4589 35.7072 9.12108 36.2164 7.54326C34.8788 8.33893 33.4136 8.89687 31.8855 9.19233C31.2469 8.50959 30.4745 7.96569 29.6165 7.59452C28.7585 7.22335 27.8332 7.03286 26.8983 7.03493C23.1159 7.03493 20.0739 10.1009 20.0739 13.8634C20.0739 14.3917 20.1379 14.92 20.242 15.4284C14.5783 15.1322 9.52705 12.4264 6.16887 8.28374C5.55697 9.32888 5.23632 10.5189 5.24026 11.73C5.24026 14.0995 6.44505 16.1889 8.28224 17.4177C7.19955 17.375 6.14222 17.0774 5.19624 16.5491V16.6332C5.19624 19.9513 7.54176 22.7011 10.6678 23.3335C10.0808 23.486 9.47704 23.564 8.87062 23.5657C8.42633 23.5657 8.00606 23.5216 7.58178 23.4616C8.44634 26.1673 10.964 28.1326 13.9619 28.1967C11.6164 30.0339 8.67849 31.1146 5.48843 31.1146C4.91605 31.1146 4.38771 31.0945 3.83936 31.0305C6.86532 32.9718 10.4556 34.0925 14.3222 34.0925C26.8743 34.0925 33.7428 23.6937 33.7428 14.6679C33.7428 14.3717 33.7428 14.0755 33.7227 13.7793C35.0516 12.8067 36.2164 11.6019 37.145 10.249Z" fill="white"/>
</svg>
